<svg xmlns="http://www.w3.org/2000/svg" viewBox="0 0 320 72" width="320" height="72" role="img" aria-label="EcoLume — PLXY smart street lighting">
  <title>EcoLume — PLXY smart street lighting</title>
  <defs>
    <linearGradient id="ecolumeLogoTile" x1="0" y1="0" x2="1" y2="1">
      <stop offset="0" stop-color="#4FA8FF"/>
      <stop offset="1" stop-color="#0B67C7"/>
    </linearGradient>
    <mask id="ecolumeLogoGlyph">
      <rect x="8" y="8" width="56" height="56" fill="#000"/>
      <g transform="translate(8 8) scale(0.875)">
        <rect x="21.5" y="15" width="15" height="6.5" rx="3.25" fill="#fff"/>
        <path d="M23 23h12l8.5 22.5a25 25 0 0 1-29 0Z" fill="#fff"/>
        <path d="M33 26 24 39h5.5l-3 10L35.5 35.5h-5Z" fill="#000"/>
        <path d="M36.56 13.64a9 9 0 0 1 6.9 5.78" fill="none" stroke="#fff" stroke-width="3.1" stroke-linecap="round"/>
        <path d="M37.34 9.21a13.5 13.5 0 0 1 10.35 8.67" fill="none" stroke="#fff" stroke-width="3.1" stroke-linecap="round"/>
      </g>
    </mask>
  </defs>
  <rect x="8" y="8" width="56" height="56" rx="13" fill="url(#ecolumeLogoTile)"/>
  <rect x="8" y="8" width="56" height="56" rx="13" fill="#fff" mask="url(#ecolumeLogoGlyph)"/>
  <text x="80" y="40" font-family="Manrope, 'DM Sans', 'Segoe UI', system-ui, -apple-system, sans-serif" font-size="29" font-weight="700" letter-spacing="-1.1" textLength="124" fill="#1E90FF">EcoLume</text>
  <text x="82" y="56" font-family="Manrope, 'DM Sans', 'Segoe UI', system-ui, -apple-system, sans-serif" font-size="9" font-weight="600" letter-spacing="3.1" textLength="220" fill="#6FA8DC">PLXY SMART STREET LIGHTING</text>
</svg>
